<?xml version="1.0" encoding="UTF-8" standalone="no"?>
<svg
   xmlns:dc="http://purl.org/dc/elements/1.1/"
   xmlns:cc="http://creativecommons.org/ns#"
   xmlns:rdf="http://www.w3.org/1999/02/22-rdf-syntax-ns#"
   xmlns:svg="http://www.w3.org/2000/svg"
   xmlns="http://www.w3.org/2000/svg"
   xmlns:sodipodi="http://sodipodi.sourceforge.net/DTD/sodipodi-0.dtd"
   xmlns:inkscape="http://www.inkscape.org/namespaces/inkscape"
   width="610.76056"
   height="622.36163"
   id="svg2"
   version="1.1"
   inkscape:version="1.0.2 (e86c870879, 2021-01-15, custom)"
   sodipodi:docname="parabola_critv.svg">
  <defs
     id="defs4" />
  <sodipodi:namedview
     id="base"
     pagecolor="#ffffff"
     bordercolor="#666666"
     borderopacity="1.0"
     inkscape:pageopacity="0.0"
     inkscape:pageshadow="2"
     inkscape:zoom="0.67054456"
     inkscape:cx="92.056862"
     inkscape:cy="269.18127"
     inkscape:document-units="px"
     inkscape:current-layer="layer1"
     showgrid="false"
     inkscape:window-width="1920"
     inkscape:window-height="974"
     inkscape:window-x="-11"
     inkscape:window-y="-11"
     inkscape:window-maximized="1"
     fit-margin-top="0"
     fit-margin-left="0"
     fit-margin-right="0"
     fit-margin-bottom="0"
     inkscape:document-rotation="0" />
  <metadata
     id="metadata7">
    <rdf:RDF>
      <cc:Work
         rdf:about="">
        <dc:format>image/svg+xml</dc:format>
        <dc:type
           rdf:resource="http://purl.org/dc/dcmitype/StillImage" />
        <dc:title></dc:title>
      </cc:Work>
    </rdf:RDF>
  </metadata>
  <g
     inkscape:label="Layer 1"
     inkscape:groupmode="layer"
     id="layer1"
     transform="translate(-57.128841,-236.81409)">
    <g
       id="g942"
       transform="translate(12.700902,13.331464)">
      <path
         style="fill:none;stroke:#5e81b5;stroke-width:2;stroke-linecap:square;stroke-linejoin:miter;stroke-miterlimit:3.25;stroke-dasharray:none;stroke-opacity:1"
         d="m 415.75565,778.50409 c 40.81918,7.47576 84.92257,-4.58449 115.29825,-33.08855 34.02596,-30.97058 49.5127,-78.50945 46.6571,-123.782 -4.2502,-71.74096 -45.15257,-136.81802 -97.95215,-183.5375 -87.76375,-77.6578 -210.00946,-109.0773 -325.28225,-97.09625 -16.37301,1.69743 -34.37094,4.25331 -49.57755,7.7794 26.66143,5.45326 52.89094,14.91747 74.99795,31.156 27.4871,20.0182 49.89268,48.54215 58.98,81.5992 2.17733,7.58791 3.0192,17.3916 2.803,23.72805 5.17729,-34.29815 -7.65468,-70.79984 -32.4895,-95.1733 -9.92755,-10.02246 -22.03914,-18.29319 -34.537,-23.9389 33.90835,12.38716 68.23001,27.50294 100.118,45.57835 51.72239,28.61831 98.58503,64.91546 144.6674,101.6818 7.91923,6.32444 18.29336,14.00379 25.6349,18.97415 -20.45628,-9.31891 -45.10562,-10.8088 -67.22725,-6.1333 -19.3525,3.96529 -39.16238,15.48341 -45.60545,35.1913 -5.99909,18.7091 -4.08418,39.48913 2.3875,57.7463 0.29002,0.87504 1.20763,2.75119 1.2193,2.9413 -9.73788,-14.12493 -25.01649,-24.4119 -40.1269,-32.4681 -38.85513,-19.70055 -84.56003,-24.91183 -127.15145,-18.2252 -1.09994,0.2171 -1.95526,0.33475 -0.3658,-0.0689 31.70456,-9.25238 58.51935,-35.71773 68.87065,-66.8138 0.33863,-1.08443 -0.65433,1.34529 -0.9607,1.8737 -10.02227,19.69371 -29.86928,33.01419 -48.50165,44.27905 -22.76347,13.60117 -47.67542,22.73651 -72.7081,31.15145 -2.87441,1.26495 -7.7899,2.46668 -9.94695,3.8307 50.44482,18.85691 96.15708,49.3576 137.70935,83.49995 39.831,31.84746 76.64133,68.5407 122.3439,92.13705 15.99419,8.12216 33.06117,14.28126 50.78165,17.2841"
         id="path2997"
         inkscape:connector-curvature="0" />
      <path
         style="fill:none;stroke:#5e81b5;stroke-width:2;stroke-linecap:square;stroke-linejoin:miter;stroke-miterlimit:3.25;stroke-dasharray:none;stroke-opacity:1"
         d="m 237.96815,501.60409 c 1.45961,-4.24687 2.79305,-11.14767 3.3898,-13.81485 -0.54454,5.19211 -1.73668,10.45575 -3.8193,15.2011 0.12608,-0.4367 0.28938,-0.92479 0.4313,-1.388"
         id="path2999"
         inkscape:connector-curvature="0" />
      <path
         id="path3007"
         style="fill:none;stroke:#5e81b5;stroke-width:2;stroke-linecap:square;stroke-linejoin:miter;stroke-miterlimit:3.25;stroke-dasharray:none;stroke-opacity:1"
         d="m 237.2544,503.79159 0.005,0.005 v -0.005 h -0.005"
         inkscape:connector-curvature="0" />
    </g>
  </g>
</svg>
